<svg id="Слой_1" data-name="Слой 1" xmlns="http://www.w3.org/2000/svg" viewBox="0 0 95.55 61.35"><defs><style>.cls-1{fill:#fff;}.cls-2{fill:#982672;}</style></defs><title>Монтажная область 1</title><path class="cls-1" d="M37.25,61.35h-7V20.7h7Zm5.85-29.1h7v29.1h-7Zm20.4,29.1h-7V23.15h17.1V29.3H63.5V39.9h9.4v6.15H63.5Zm32.05,0H78.35V23.15h17.2V29.3H85.45v9.1h9.4v6.15h-9.4v10.6h10.1Z"/><path class="cls-2" d="M50.35,27.35h-7.5v-2l4-8.4H43.1V14.5h7.1v2.15l-3.85,8.2h4Zm0-14.5h-7.5V10.9l4-8.4H43.1V0h7.1V2.15l-3.85,8.2h4ZM22.6,61.35l-2.3-10.2H9.8L7.5,61.35H0l10-40.5H20.2l10,40.5Zm-3.7-16.8-2.15-9.4c-.15-.55-.4-2-.85-4.3s-.7-3.8-.8-4.6c-.25,1.6-.55,3.3-.9,5.25s-1.3,6.25-2.85,13.05Z"/></svg>