<svg id="Слой_1" data-name="Слой 1" xmlns="http://www.w3.org/2000/svg" viewBox="0 0 399.98 78.75"><defs><style>.cls-1{fill:#fff;}.cls-2{fill:#f20c0c;}</style></defs><title>Монтажная область 1</title><path class="cls-1" d="M42.59,57.95,0,39.26V36.52L42.59,15.23V19.5l-37,18.19,37,15.95Z"/><path class="cls-2" d="M124,37.33q0,10.24-4.07,16.44t-11,6.2a8.91,8.91,0,0,1-6.49-2.43,10.24,10.24,0,0,1-2.9-6.6h-.18a14.37,14.37,0,0,1-5.57,6.76A15.71,15.71,0,0,1,85.26,60Q78.61,60,75,55.64T71.34,43.48q0-9.07,5.41-14.85t14.13-5.77a48.07,48.07,0,0,1,12.85,1.84l-1,20.84V46.9q0,4.67,1.57,7t5.21,2.36q4.63,0,7.57-5.23T120,37.42a31.62,31.62,0,0,0-3.55-15.27,24.37,24.37,0,0,0-10.13-10.08,31.32,31.32,0,0,0-15-3.53A36.29,36.29,0,0,0,73.11,13,30.22,30.22,0,0,0,61,25.65a40.17,40.17,0,0,0-4.25,18.78q0,14.47,7.5,22.35t21.29,7.88A45.65,45.65,0,0,0,94,73.85a62.67,62.67,0,0,0,10.4-3.14v4.45a50.34,50.34,0,0,1-18.6,3.59q-15.68,0-24.44-9t-8.76-25A43.44,43.44,0,0,1,57.48,24,34.87,34.87,0,0,1,71.27,9.75,40,40,0,0,1,91.42,4.67a35.53,35.53,0,0,1,17.09,4A27.65,27.65,0,0,1,120,20.1,35.67,35.67,0,0,1,124,37.33ZM76,43.39q0,6.42,2.47,9.66t7.82,3.23q11.46,0,12.26-15.54l.72-13.07a27,27,0,0,0-8.67-1.21,13.31,13.31,0,0,0-10.65,4.6Q76,35.67,76,43.39Z"/><path class="cls-1" d="M167.6,69.9H132.74V67.07l29-42H134.86v-4h32.66V23.9l-29.15,42H167.6Z"/><path class="cls-1" d="M210,69.9H175.15V67.07l29-42H177.26v-4h32.66V23.9l-29.15,42H210Z"/><path class="cls-1" d="M226.5,69.9H222V0h4.45Z"/><path class="cls-1" d="M242.22,7.5q0-4.31,2.83-4.31a2.52,2.52,0,0,1,2.18,1.12A5.52,5.52,0,0,1,248,7.5a5.65,5.65,0,0,1-.79,3.19A2.49,2.49,0,0,1,245,11.86Q242.22,11.86,242.22,7.5Zm5.08,62.4h-4.45V21.07h4.45Z"/><path class="cls-1" d="M269.35,69.9h-4.58V4.22h36V8.45h-31.4V36.3H299v4.27H269.35Z"/><path class="cls-1" d="M346.84,69.9H310.95V4.22h35.89V8.45H315.53V33.29h29.56v4.22H315.53V65.68h31.31Z"/><path class="cls-1" d="M357.4,53.64l37-15.95-37-18.19V15.23L400,36.52v2.74L357.4,57.95Z"/></svg>