<svg id="Слой_1" data-name="Слой 1" xmlns="http://www.w3.org/2000/svg" viewBox="0 0 47.78 30.68"><defs><style>.cls-1{fill:#fff;}.cls-2{fill:#982672;}</style></defs><title>Монтажная область 1</title><path class="cls-1" d="M18.63,30.67H15.15V10.35h3.48Zm2.92-14.55H25V30.67H21.55Zm10.2,14.55H28.22V11.57h8.55v3.07h-5V20h4.7V23h-4.7Zm16,0h-8.6V11.57h8.6v3.07h-5V19.2h4.7v3.08h-4.7v5.3h5Z"/><path class="cls-2" d="M25.17,13.68H21.42v-1l2-4.2H21.55V7.25H25.1V8.32l-1.92,4.1h2Zm0-7.25H21.42v-1l2-4.2H21.55V0H25.1V1.08l-1.92,4.1h2ZM11.3,30.67l-1.15-5.1H4.9l-1.15,5.1H0L5,10.43h5.1l5,20.25Zm-1.85-8.4-1.07-4.7c-.07-.27-.2-1-.43-2.15s-.35-1.9-.4-2.3c-.12.8-.27,1.65-.45,2.63s-.65,3.12-1.43,6.53Z"/></svg>