<svg id="Слой_1" xmlns="http://www.w3.org/2000/svg" viewBox="0 0 205.5 122.7"><style>.st0{fill:#e91818}</style><path d="M88.9 122.7H75V41.4h13.9v81.3zm11.7-58.2h13.9v58.2h-13.9zm40.8 58.2h-14.1V46.3h34.2v12.3h-20.1v21.2h18.8v12.3h-18.8v30.6zm64.1 0h-34.4V46.3h34.4v12.3h-20.2v18.2h18.8v12.3h-18.8v21.2h20.2v12.4z"/><path class="st0" d="M115.1 54.7h-15v-3.9L108 34h-7.4v-5h14.2v4.3l-7.7 16.4h8v5zm0-29h-15v-3.9L108 5h-7.4V0h14.2v4.3l-7.7 16.4h8v5zm-55.5 97L55 102.3H34l-4.6 20.4h-15l20-81h20.4l20 81H59.6zm-7.4-33.6l-4.3-18.8c-.3-1.1-.8-4-1.7-8.6-.9-4.6-1.4-7.6-1.6-9.2-.5 3.2-1.1 6.6-1.8 10.5-.7 3.8-2.6 12.5-5.7 26.1h15.1z"/></svg>